<svg xmlns="http://www.w3.org/2000/svg" width="256" height="256" viewBox="0 0 100 100"><path fill="#000000" d="M0.66 75.15L25.85 75.15Q25.35 73.05 23.59 72.89L23.59 72.89L19.14 72.89L19.14 52.73L21.82 50.29L37.86 75.24L53.91 75.15Q53.40 73.05 51.64 72.89L51.64 72.89L50.88 72.89L30.39 42.48L43.16 30.98Q46.93 27.53 48.61 27.11L48.61 27.11Q49.20 27.03 49.71 27.03L49.71 27.03Q51.72 27.03 51.89 25.60L51.89 25.60Q51.97 25.18 51.97 24.76L51.97 24.76L36.44 24.76L36.44 27.03L43.16 27.03L19.14 48.70L19.14 27.03L25.85 27.03L25.85 24.76L0.66 24.76L0.66 27.03L7.38 27.03L7.38 72.89L0.66 72.89L0.66 75.15ZM63.40 75.15L91.11 75.15Q90.61 73.05 88.84 72.89L88.84 72.89L83.13 72.89L83.13 27.03L84.56 27.03Q90.61 27.03 93.13 32.41L93.13 32.41Q93.63 33.58 94.22 35.18L94.22 35.18L96.82 42.74L99.34 42.74L99.00 24.76L55.50 24.76L55.17 42.74L57.68 42.74L60.29 35.18Q62.14 29.80 65.08 28.12L65.08 28.12Q67.09 27.03 69.95 27.03L69.95 27.03L71.37 27.03L71.37 72.89L63.40 72.89L63.40 75.15Z"></path></svg>